<svg width="20" height="20" viewBox="0 0 20 20" fill="none" xmlns="http://www.w3.org/2000/svg">
<path d="M10.852 15.7459L7.59445 18.9802C7.54408 19.0302 7.48436 19.0698 7.41869 19.0967C7.35303 19.1236 7.2827 19.1374 7.21173 19.1371C7.14076 19.1369 7.07053 19.1226 7.00506 19.0952C6.93959 19.0678 6.88015 19.0278 6.83015 18.9774L4.90059 17.034C4.7996 16.9323 4.74316 16.7947 4.74367 16.6513C4.74418 16.508 4.80161 16.3707 4.90333 16.2697C5.13895 16.0255 5.26953 15.6986 5.26707 15.3592C5.26462 15.0198 5.12933 14.6949 4.8902 14.454C4.65106 14.2132 4.32711 14.0756 3.98774 14.0707C3.64838 14.0658 3.3206 14.1941 3.07463 14.4279C3.02427 14.4779 2.96455 14.5175 2.89888 14.5444C2.83322 14.5714 2.76289 14.5851 2.69192 14.5848C2.62095 14.5846 2.55072 14.5704 2.48525 14.543C2.41978 14.5156 2.36034 14.4756 2.31034 14.4252L0.380782 12.4818C0.279792 12.3801 0.223345 12.2424 0.223858 12.0991C0.22437 11.9557 0.281801 11.8185 0.383516 11.7175L3.64103 8.48319L10.852 15.7459Z" fill="#343A4F"/>
<path d="M16.321 4.93303C16.4227 4.83204 16.5604 4.7756 16.7037 4.77611C16.8471 4.77662 16.9843 4.83405 17.0853 4.93577L19.0149 6.87917C19.1159 6.98089 19.1723 7.11855 19.1718 7.26189C19.1713 7.40522 19.1139 7.54248 19.0121 7.64347L11.6182 14.9847L4.40723 7.72205L11.8012 0.380772C11.9029 0.279782 12.0406 0.223334 12.1839 0.223847C12.3273 0.224359 12.4645 0.28179 12.5655 0.383505L14.4951 2.32691C14.5961 2.42863 14.6525 2.56629 14.652 2.70963C14.6515 2.85296 14.594 2.99022 14.4923 3.09121C14.248 3.33377 14.1101 3.66344 14.1089 4.00769C14.1076 4.35195 14.2432 4.6826 14.4858 4.9269C14.7283 5.1712 15.058 5.30913 15.4022 5.31036C15.7465 5.3116 16.0767 5.17559 16.321 4.93303Z" fill="#343A4F"/>
</svg>
