<svg width="15" height="17" viewBox="0 0 15 17" fill="none" xmlns="http://www.w3.org/2000/svg">
<path d="M14.0447 4.63827C14.0421 4.60491 14.0267 4.57372 14.0015 4.55096C13.9763 4.52819 13.9432 4.51551 13.9089 4.51546H11.4546V3.85166C11.4546 2.83014 11.038 1.85045 10.2964 1.12813C9.55472 0.405799 8.54884 0 7.5 0C6.45116 0 5.44528 0.405799 4.70364 1.12813C3.962 1.85045 3.54535 2.83014 3.54535 3.85166V4.51575H1.09053C1.05617 4.51581 1.0231 4.52848 0.997918 4.55125C0.972739 4.57402 0.957307 4.6052 0.954705 4.63857L-0.000608305 16.8574C-0.00198384 16.8756 0.00050331 16.8939 0.0066987 16.9111C0.0128941 16.9284 0.0226649 16.9442 0.035404 16.9576C0.0481431 16.971 0.0635788 16.9817 0.0807494 16.989C0.09792 16.9964 0.116458 17.0002 0.135213 17.0003H14.8633C14.882 17.0003 14.9005 16.9965 14.9177 16.9892C14.9349 16.9818 14.9503 16.9712 14.9631 16.9578C14.9758 16.9444 14.9856 16.9286 14.9918 16.9114C14.998 16.8941 15.0005 16.8759 14.9991 16.8577L14.0447 4.63827ZM4.63588 3.85166C4.63588 3.11195 4.93759 2.40254 5.47463 1.87948C6.01167 1.35642 6.74005 1.06257 7.49954 1.06257C8.25903 1.06257 8.98742 1.35642 9.52446 1.87948C10.0615 2.40254 10.3632 3.11195 10.3632 3.85166V4.51575H4.63588V3.85166ZM4.08895 8.23454C3.7274 8.23415 3.38077 8.09409 3.12512 7.84509C2.86946 7.5961 2.72566 7.2585 2.72526 6.90636C2.71481 6.6458 2.788 6.38855 2.93466 6.17039C3.08132 5.95223 3.29415 5.78402 3.54353 5.68916V6.90636C3.55381 7.0404 3.61573 7.1657 3.71689 7.25713C3.81804 7.34857 3.95094 7.39938 4.08895 7.39938C4.22695 7.39938 4.35985 7.34857 4.46101 7.25713C4.56216 7.1657 4.62408 7.0404 4.63436 6.90636V5.69005C4.88336 5.78519 5.09585 5.95334 5.24244 6.17124C5.38904 6.38915 5.46249 6.64603 5.45264 6.90636C5.45224 7.25824 5.30864 7.59562 5.05332 7.84457C4.79799 8.09353 4.45175 8.23376 4.09047 8.23454H4.08895ZM10.9071 8.23454C10.5456 8.23415 10.1989 8.09409 9.94327 7.84509C9.68762 7.5961 9.54381 7.2585 9.54341 6.90636C9.53296 6.6458 9.60616 6.38855 9.75281 6.17039C9.89947 5.95223 10.1123 5.78402 10.3617 5.68916V6.90636C10.372 7.0404 10.4339 7.1657 10.535 7.25713C10.6362 7.34857 10.7691 7.39938 10.9071 7.39938C11.0451 7.39938 11.178 7.34857 11.2792 7.25713C11.3803 7.1657 11.4422 7.0404 11.4525 6.90636V5.69005C11.7015 5.78519 11.914 5.95334 12.0606 6.17124C12.2072 6.38915 12.2806 6.64603 12.2708 6.90636C12.2704 7.25839 12.1267 7.5959 11.8711 7.84488C11.6156 8.09387 11.2692 8.23399 10.9077 8.23454H10.9071Z" fill="#343A4F"/>
</svg>
