<svg width="17" height="19" viewBox="0 0 17 19" fill="none" xmlns="http://www.w3.org/2000/svg">
<path d="M15.2105 17.2727H5.36842V5.18182H15.2105M15.2105 3.45455H5.36842C4.89382 3.45455 4.43866 3.63653 4.10307 3.96045C3.76748 4.28438 3.57895 4.72372 3.57895 5.18182V17.2727C3.57895 17.7308 3.76748 18.1702 4.10307 18.4941C4.43866 18.818 4.89382 19 5.36842 19H15.2105C15.6851 19 16.1403 18.818 16.4759 18.4941C16.8115 18.1702 17 17.7308 17 17.2727V5.18182C17 4.72372 16.8115 4.28438 16.4759 3.96045C16.1403 3.63653 15.6851 3.45455 15.2105 3.45455ZM12.5263 0H1.78947C1.31488 0 0.859716 0.18198 0.524125 0.505907C0.188533 0.829833 0 1.26917 0 1.72727V13.8182H1.78947V1.72727H12.5263V0Z" fill="black"/>
</svg>
