<svg width="24" height="22" viewBox="0 0 24 22" fill="none" xmlns="http://www.w3.org/2000/svg">
<path d="M13.6268 3.29247e-05C13.4404 0.00219904 13.2604 0.0684341 13.1165 0.187783C12.9725 0.307132 12.8733 0.472445 12.8352 0.65638L11.6037 6.61506C8.93211 6.69045 6.51848 7.50968 4.73651 8.81184C4.24614 8.45929 3.648 8.25002 3 8.25002C1.34291 8.25002 0 9.60412 0 11.275C0 12.4586 0.675307 13.4811 1.65767 13.9777C1.65167 14.0855 1.63636 14.1911 1.63636 14.3C1.63636 18.5526 6.27655 22 12 22C17.7235 22 22.3636 18.5526 22.3636 14.3C22.3636 14.1911 22.3483 14.0855 22.3423 13.9777C23.3247 13.4811 24 12.4586 24 11.275C24 9.60412 22.6571 8.25002 21 8.25002C20.352 8.25002 19.7539 8.45929 19.2635 8.81184C17.6769 7.65243 15.5894 6.87453 13.2656 6.6634L14.2734 1.78753L17.5238 2.41165C17.739 3.23689 18.4786 3.85003 19.3636 3.85003C20.4164 3.85003 21.2727 2.98653 21.2727 1.92503C21.2727 0.863532 20.4164 3.29247e-05 19.3636 3.29247e-05C18.7328 3.29247e-05 18.1763 0.313742 17.8285 0.790657L13.7898 0.015072C13.7361 0.00457842 13.6815 -0.000459777 13.6268 3.29247e-05ZM7.90909 11C8.96345 11 9.81818 11.8619 9.81818 12.925C9.81818 13.9882 8.96345 14.85 7.90909 14.85C6.85473 14.85 6 13.9882 6 12.925C6 11.8619 6.85473 11 7.90909 11ZM16.0909 11C17.1453 11 18 11.8619 18 12.925C18 13.9882 17.1453 14.85 16.0909 14.85C15.0365 14.85 14.1818 13.9882 14.1818 12.925C14.1818 11.8619 15.0365 11 16.0909 11ZM8.45455 16.5C8.66386 16.5 8.87321 16.5806 9.03303 16.7417C9.06193 16.7687 9.96112 17.6 11.9989 17.6C14.0569 17.6 14.9577 16.7505 14.9659 16.7417C15.2855 16.4194 15.8032 16.4194 16.1229 16.7417C16.4425 17.064 16.443 17.5866 16.1239 17.9083C15.9876 18.0458 14.7153 19.2489 12 19.2489C9.28473 19.2489 8.01243 18.0458 7.87607 17.9083C7.55643 17.5866 7.55643 17.064 7.87607 16.7417C8.03588 16.5806 8.24523 16.5 8.45455 16.5Z" fill="#FE4500"/>
</svg>
