<svg width="22" height="18" viewBox="0 0 22 18" fill="none" xmlns="http://www.w3.org/2000/svg">
<path fill-rule="evenodd" clip-rule="evenodd" d="M0.436936 8.88629L5.36498 10.492C5.44804 10.5064 5.53333 10.5012 5.61402 10.4768L5.61714 10.4748C6.75371 9.7571 16.8929 3.35429 17.4783 3.13893C17.5705 3.11099 17.6392 3.14246 17.621 3.20623C17.3862 4.02943 8.56435 11.871 8.56435 11.871C8.56435 11.871 8.52874 11.9115 8.50758 11.9615L8.49814 11.9559L8.03825 16.8436C8.03825 16.8436 7.84575 18.3412 9.34304 16.8436C10.3977 15.7887 11.4205 14.9039 11.9331 14.4729C13.6273 15.6427 15.4511 16.9369 16.2378 17.6136C16.3696 17.7415 16.5258 17.8416 16.6971 17.9079C16.8683 17.9741 17.0512 18.0052 17.2348 17.9993C17.9818 17.9712 18.1902 17.1507 18.1902 17.1507C18.1902 17.1507 21.6748 3.12883 21.7913 1.25006C21.7958 1.17885 21.8008 1.11763 21.8054 1.06199C21.8127 0.973928 21.8188 0.899857 21.8197 0.822311C21.8258 0.676034 21.8114 0.529628 21.777 0.387325C21.7595 0.306757 21.7209 0.232286 21.6652 0.171528C21.6094 0.110769 21.5385 0.0659047 21.4598 0.0415241C21.1414 -0.0794642 20.6016 0.102439 20.6016 0.102439C20.6016 0.102439 1.48292 6.9742 0.390997 7.7353C0.155415 7.8987 0.0766637 7.99377 0.0376244 8.1055C-0.152019 8.64734 0.436936 8.88629 0.436936 8.88629Z" fill="#0089CC"/>
</svg>
