<svg width="25" height="25" viewBox="0 0 25 25" fill="none" xmlns="http://www.w3.org/2000/svg">
<path d="M12.5502 0C5.69095 0 0.100503 5.5625 0.100503 12.3875C0.100503 14.575 0.678392 16.7 1.75879 18.575L0 25L6.59548 23.275C8.41708 24.2625 10.4648 24.7875 12.5502 24.7875C19.4095 24.7875 25 19.225 25 12.4C25 9.0875 23.706 5.975 21.3568 3.6375C19.0075 1.2875 15.8794 0 12.5502 0ZM12.5628 2.0875C15.3266 2.0875 17.9146 3.1625 19.8744 5.1125C21.8216 7.0625 22.902 9.65 22.902 12.4C22.902 18.075 18.2538 22.6875 12.5502 22.6875C10.691 22.6875 8.86935 22.2 7.28643 21.25L6.90955 21.0375L2.98995 22.0625L4.03266 18.2625L3.78141 17.8625C2.75126 16.25 2.19849 14.3375 2.19849 12.3875C2.21106 6.7125 6.84673 2.0875 12.5628 2.0875ZM8.1407 6.6625C7.9397 6.6625 7.6005 6.7375 7.31156 7.05C7.03517 7.3625 6.21859 8.125 6.21859 9.6375C6.21859 11.1625 7.33668 12.625 7.47487 12.8375C7.65075 13.05 9.68593 16.175 12.8141 17.5C13.5553 17.8375 14.1332 18.025 14.5854 18.1625C15.3266 18.4 16.005 18.3625 16.5452 18.2875C17.1482 18.2 18.3794 17.5375 18.6432 16.8125C18.907 16.0875 18.907 15.475 18.8317 15.3375C18.7437 15.2125 18.5427 15.1375 18.2286 15C17.9146 14.825 16.3819 14.075 16.1055 13.975C15.8166 13.875 15.6407 13.825 15.402 14.125C15.201 14.4375 14.598 15.1375 14.4221 15.3375C14.2337 15.55 14.0578 15.575 13.7563 15.425C13.4296 15.2625 12.4246 14.9375 11.2437 13.8875C10.3141 13.0625 9.69849 12.05 9.51005 11.7375C9.35929 11.4375 9.49749 11.25 9.64824 11.1125C9.78643 10.975 9.98744 10.75 10.1131 10.5625C10.2764 10.3875 10.3266 10.25 10.4271 10.05C10.5276 9.8375 10.4774 9.6625 10.402 9.5125C10.3266 9.375 9.69849 7.825 9.43467 7.2125C9.18342 6.6125 8.93216 6.6875 8.73115 6.675C8.55528 6.675 8.35427 6.6625 8.1407 6.6625Z" fill="#29D168"/>
</svg>
